# Blender 3.6.7
# www.blender.org
mtllib finish line.mtl
o Cube
v -3.174986 3.219355 -0.043573
v -3.174986 -0.023298 -0.043573
v -3.174986 3.219355 0.043573
v -3.174986 -0.023298 0.043573
v -3.275692 3.219355 -0.043573
v -3.275692 -0.023298 -0.043573
v -3.275692 3.219355 0.043573
v -3.275692 -0.023298 0.043573
v -4.032441 2.745139 0.000000
v -3.276826 2.509721 0.000000
v -4.032441 2.754224 0.000000
v -3.276826 3.143764 0.000000
v -3.181551 2.702719 -0.000000
v -2.733587 2.702719 -0.000000
v -3.181551 3.150683 0.000000
v -2.733587 3.150683 0.000000
v -2.281622 2.702719 -0.000000
v -2.281622 3.150683 0.000000
v -1.875233 2.702719 -0.000000
v -1.875233 3.150683 0.000000
v -1.468328 2.702719 -0.000000
v -1.468328 3.150683 0.000000
v -0.962978 2.702719 -0.000000
v -0.962978 3.150683 0.000000
v -0.457628 2.702719 -0.000000
v -0.457628 3.150683 0.000000
v 0.015465 2.702719 -0.000000
v 0.015465 3.150683 0.000000
v 3.205917 3.219355 -0.043573
v 3.205917 -0.023298 -0.043573
v 3.205917 3.219355 0.043573
v 3.205917 -0.023298 0.043573
v 3.306622 3.219355 -0.043573
v 3.306622 -0.023298 -0.043573
v 3.306622 3.219355 0.043573
v 3.306622 -0.023298 0.043573
v 4.063372 2.745139 0.000000
v 3.307756 2.509721 0.000000
v 4.063372 2.754224 0.000000
v 3.307756 3.143764 0.000000
v 3.212482 2.702719 -0.000000
v 2.764517 2.702719 -0.000000
v 3.212482 3.150683 0.000000
v 2.764517 3.150683 0.000000
v 2.312553 2.702719 -0.000000
v 2.312553 3.150683 0.000000
v 1.906164 2.702719 -0.000000
v 1.906164 3.150683 0.000000
v 1.499259 2.702719 -0.000000
v 1.499259 3.150683 0.000000
v 0.993909 2.702719 -0.000000
v 0.993909 3.150683 0.000000
v 0.488559 2.702719 -0.000000
v 0.488559 3.150683 0.000000
vn -0.0000 1.0000 -0.0000
vn -0.0000 -0.0000 1.0000
vn -1.0000 -0.0000 -0.0000
vn -0.0000 -1.0000 -0.0000
vn 1.0000 -0.0000 -0.0000
vn -0.0000 -0.0000 -1.0000
vt 0.631444 0.711467
vt 0.635363 0.038932
vt 0.964578 0.041357
vt 0.960659 0.713892
vt 0.621898 0.722942
vt 0.625817 0.050408
vt 0.955031 0.052833
vt 0.951112 0.725367
vt 0.632580 0.728069
vt 0.636499 0.055535
vt 0.965714 0.057960
vt 0.961795 0.730494
vt 0.636008 0.717167
vt 0.639927 0.044632
vt 0.969142 0.047057
vt 0.965223 0.719592
vt 0.636441 0.732919
vt 0.640360 0.060385
vt 0.969575 0.062809
vt 0.965656 0.735344
vt 0.633670 0.730494
vt 0.637589 0.057960
vt 0.966803 0.060385
vt 0.962884 0.732919
vt 0.022877 0.032577
vt 0.355447 0.178866
vt 0.206331 0.370968
vt 0.002715 0.102738
vt 0.483485 0.516515
vt 0.483485 0.991297
vt 0.008703 0.991297
vt 0.008703 0.516515
vt 0.469390 0.962354
vt 0.008675 0.962354
vt 0.008675 0.541552
vt 0.469390 0.541552
vt 0.475793 0.991371
vt 0.006697 0.991371
vt 0.006697 0.519197
vt 0.475793 0.519197
vt 0.477221 0.991410
vt 0.008644 0.991410
vt 0.008643 0.519158
vt 0.477221 0.519158
vt 0.490542 0.984937
vt 0.011604 0.984937
vt 0.011604 0.506101
vt 0.490542 0.506101
vt 0.477291 0.989760
vt 0.017042 0.989760
vt 0.017042 0.520808
vt 0.477291 0.520808
vt 0.481569 0.993335
vt 0.016166 0.993335
vt 0.016166 0.509421
vt 0.481569 0.509421
vt 0.625243 0.723869
vt 0.954458 0.726293
vt 0.958377 0.053759
vt 0.629162 0.051334
vt 0.646701 0.735344
vt 0.975915 0.737769
vt 0.979834 0.065234
vt 0.650620 0.062809
vt 0.642209 0.735769
vt 0.971424 0.738194
vt 0.975343 0.065659
vt 0.646128 0.063234
vt 0.615124 0.732919
vt 0.944339 0.735344
vt 0.948257 0.062809
vt 0.619043 0.060385
vt 0.645555 0.730494
vt 0.974769 0.732919
vt 0.978688 0.060385
vt 0.649473 0.057960
vt 0.010362 0.096299
vt 0.031452 0.043565
vt 0.363906 0.219012
vt 0.227752 0.367025
vt 0.026697 0.538416
vt 0.026697 0.985021
vt 0.473303 0.985021
vt 0.473303 0.538416
vt 0.485732 0.514527
vt 0.485732 0.996041
vt 0.009269 0.996041
vt 0.009269 0.514527
vt 0.475003 0.525864
vt 0.475003 0.992517
vt 0.011392 0.992517
vt 0.011392 0.525864
vt 0.479126 0.523129
vt 0.479126 0.991346
vt 0.014552 0.991346
vt 0.014552 0.523129
vt 0.441653 0.533113
vt 0.448371 0.949179
vt 0.029014 0.954018
vt 0.029014 0.533113
vt 0.478792 0.515353
vt 0.478792 0.987404
vt 0.019448 0.987404
vt 0.019447 0.515353
vt 0.477426 0.504164
vt 0.477426 0.986873
vt 0.016404 0.986873
vt 0.016403 0.504164
s 0
usemtl Material
f 1/1/1 5/2/1 7/3/1 3/4/1
f 4/5/2 3/6/2 7/7/2 8/8/2
f 8/9/3 7/10/3 5/11/3 6/12/3
f 6/13/4 2/14/4 4/15/4 8/16/4
f 2/17/5 1/18/5 3/19/5 4/20/5
f 6/21/6 5/22/6 1/23/6 2/24/6
f 9/25/2 10/26/2 12/27/2 11/28/2
f 13/29/2 14/30/2 16/31/2 15/32/2
f 16/33/2 14/34/2 17/35/2 18/36/2
f 18/37/2 17/38/2 19/39/2 20/40/2
f 20/41/2 19/42/2 21/43/2 22/44/2
f 22/45/2 21/46/2 23/47/2 24/48/2
f 24/49/2 23/50/2 25/51/2 26/52/2
f 26/53/2 25/54/2 27/55/2 28/56/2
f 29/57/1 31/58/1 35/59/1 33/60/1
f 32/61/2 36/62/2 35/63/2 31/64/2
f 36/9/5 34/12/5 33/11/5 35/10/5
f 34/65/4 36/66/4 32/67/4 30/68/4
f 30/69/3 32/70/3 31/71/3 29/72/3
f 34/73/6 30/74/6 29/75/6 33/76/6
f 37/77/2 39/78/2 40/79/2 38/80/2
f 41/81/2 43/82/2 44/83/2 42/84/2
f 44/85/2 46/86/2 45/87/2 42/88/2
f 46/89/2 48/90/2 47/91/2 45/92/2
f 48/93/2 50/94/2 49/95/2 47/96/2
f 50/97/2 52/98/2 51/99/2 49/100/2
f 52/101/2 54/102/2 53/103/2 51/104/2
f 54/105/2 28/106/2 27/107/2 53/108/2
