# Blender 3.6.7
# www.blender.org
mtllib glorious cheese holes.mtl
o cheese
v -3.294158 0.003004 -0.000000
v 3.294158 0.003004 -0.000000
v -3.294158 4.301709 -0.000000
v 3.294158 4.301709 -0.000000
v -2.233118 -0.003275 -0.076293
v -1.242588 -0.003275 -0.076293
v -2.252700 0.233731 -0.076293
v -2.208640 0.526891 -0.076293
v -2.138471 0.763764 -0.076293
v -1.991605 0.831777 -0.076293
v -1.862689 0.888063 -0.076293
v -1.666867 0.906825 -0.076293
v -1.542847 0.831777 -0.076293
v -1.363344 0.730929 -0.076293
v -1.270329 0.611321 -0.076293
v -1.216478 0.414317 -0.076293
v -1.219742 0.210279 -0.076293
v -1.224637 0.074253 -0.076293
v -2.560119 3.711359 -0.000000
v -2.891468 3.464969 -0.000000
v -3.027406 3.031666 -0.000000
v -2.984926 2.674829 -0.000000
v -2.747034 2.360471 -0.000000
v -2.279745 2.419944 -0.000000
v -1.812457 2.564378 -0.000000
v -1.600054 2.921216 -0.000000
v -1.727496 3.303543 -0.000000
v -2.186289 3.609404 -0.000000
v 2.384639 2.870239 -0.000000
v 2.129755 2.717309 -0.000000
v 2.019304 2.521898 -0.000000
v 1.976823 2.334982 -0.000000
v 2.087273 2.097091 -0.000000
v 2.503585 2.020625 -0.000000
v 2.953881 2.139571 -0.000000
v 2.996362 2.572875 -0.000000
v 2.749973 2.895728 -0.000000
v -3.294158 4.301709 -0.356838
v -3.294158 0.003004 -0.356838
v -1.242588 -0.003275 -0.280545
v 3.294158 0.003004 -0.356838
v 3.294158 4.301709 -0.356838
v -2.233118 -0.003275 -0.280545
v -2.252700 0.233731 -0.280546
v -2.208640 0.526891 -0.280546
v -2.138471 0.763764 -0.280546
v -1.991605 0.831777 -0.280546
v -1.862689 0.888063 -0.280546
v -1.666867 0.906825 -0.280546
v -1.542847 0.831777 -0.280546
v -1.363344 0.730929 -0.280546
v -1.270329 0.611321 -0.280546
v -1.216478 0.414317 -0.280546
v -1.219742 0.210279 -0.280546
v -1.224637 0.074253 -0.280545
v -2.560119 3.711359 -0.356838
v -2.891468 3.464969 -0.356838
v -3.027406 3.031666 -0.356838
v -2.984926 2.674829 -0.356838
v -2.747034 2.360471 -0.356838
v -2.279745 2.419944 -0.356838
v -1.812457 2.564378 -0.356838
v -1.600054 2.921216 -0.356838
v -1.727496 3.303543 -0.356838
v -2.186289 3.609404 -0.356838
v 2.384639 2.870239 -0.356838
v 2.129755 2.717309 -0.356838
v 2.019304 2.521898 -0.356838
v 1.976823 2.334982 -0.356838
v 2.087273 2.097091 -0.356838
v 2.503585 2.020625 -0.356838
v 2.953881 2.139571 -0.356838
v 2.996362 2.572875 -0.356838
v 2.749973 2.895728 -0.356838
vn -0.0000 -0.0177 0.9998
vn -0.0000 -0.0000 -1.0000
vn -0.0000 -0.0000 1.0000
vn -0.0000 -0.0177 -0.9998
vn -0.9646 -0.2637 -0.0000
vn 0.0014 -1.0000 -0.0000
vn -0.9999 0.0160 -0.0000
vn 1.0000 -0.0000 -0.0000
vn -0.9994 0.0360 -0.0000
vn -0.0000 1.0000 -0.0000
vn 0.5145 -0.8575 -0.0000
vn -0.9742 0.2256 -0.0000
vn -0.0059 -1.0000 -0.0000
vn 0.8706 -0.4921 -0.0000
vn 0.5967 -0.8025 -0.0000
vn 0.9966 0.0823 -0.0000
vn 0.9751 -0.2216 -0.0000
vn 0.9541 -0.2993 -0.0000
vn 0.9889 -0.1486 -0.0000
vn 0.9070 0.4211 -0.0000
vn 0.9930 0.1182 -0.0000
vn 0.9588 -0.2840 -0.0000
vn 0.1807 0.9835 -0.0000
vn 0.7974 0.6034 -0.0000
vn 0.4202 -0.9074 -0.0000
vn -0.2554 0.9668 -0.0000
vn -0.1263 0.9920 -0.0000
vn 0.4001 -0.9165 -0.0000
vn -0.9952 0.0976 -0.0000
vn -0.2953 0.9554 -0.0000
vn 0.0954 -0.9954 -0.0000
vn -0.7950 -0.6067 -0.0000
vn -0.8593 0.5115 -0.0000
vn -0.5177 -0.8556 -0.0000
vn 0.0696 -0.9976 -0.0000
vn -0.9487 -0.3162 -0.0000
vn -0.4898 -0.8718 -0.0000
vn -0.5547 -0.8321 -0.0000
vn -0.7894 -0.6139 -0.0000
vn -1.0000 -0.0000 -0.0000
vn -0.2631 -0.9648 -0.0000
vt 0.026873 0.018889
vt 0.178791 0.017546
vt 0.175987 0.068238
vt 0.182296 0.130940
vt 0.192342 0.181604
vt 0.213370 0.196151
vt 0.231828 0.208190
vt 0.259866 0.212203
vt 0.277623 0.196151
vt 0.303323 0.174581
vt 0.316641 0.148999
vt 0.324351 0.106863
vt 0.323884 0.063222
vt 0.323183 0.034128
vt 0.320613 0.017546
vt 0.970175 0.018889
vt 0.970175 0.938320
vt 0.927538 0.568547
vt 0.921455 0.475870
vt 0.856983 0.450429
vt 0.797376 0.466784
vt 0.781562 0.517665
vt 0.269432 0.643052
vt 0.239020 0.566730
vt 0.172115 0.535837
vt 0.105209 0.523117
vt 0.071149 0.590353
vt 0.065066 0.666676
vt 0.026873 0.938320
vt 0.892260 0.637601
vt 0.839952 0.632149
vt 0.803459 0.599439
vt 0.787644 0.557644
vt 0.084530 0.759353
vt 0.131972 0.812052
vt 0.185496 0.790246
vt 0.251185 0.724827
s 0
usemtl Material.002
f 1/1/1 5/2/1 7/3/1 8/4/1 9/5/1 10/6/1 11/7/1 12/8/1 13/9/1 14/10/1 15/11/1 16/12/1 17/13/1 18/14/1 6/15/1 2/16/1 4/17/1 36/18/1 35/19/1 34/20/1 33/21/1 32/22/1 26/23/1 25/24/1 24/25/1 23/26/1 22/27/1 21/28/1 3/29/1
f 63/23/2 42/17/2 73/18/2 74/30/2 66/31/2 67/32/2 68/33/2 69/22/2
f 3/29/3 21/28/3 20/34/3 19/35/3 28/36/3 27/37/3 26/23/3 4/17/3
f 39/1/4 38/29/4 58/28/4 59/27/4 60/26/4 61/25/4 62/24/4 63/23/4 69/22/4 70/21/4 71/20/4 72/19/4 73/18/4 42/17/4 41/16/4 40/15/4 55/14/4 54/13/4 53/12/4 52/11/4 51/10/4 50/9/4 49/8/4 48/7/4 47/6/4 46/5/4 45/4/4 44/3/4 43/2/4
f 26/23/3 32/22/3 31/33/3 30/32/3 29/31/3 37/30/3 36/18/3 4/17/3
f 38/29/2 42/17/2 63/23/2 64/37/2 65/36/2 56/35/2 57/34/2 58/28/2
f 15/11/5 52/11/5 53/12/5 16/12/5
f 6/15/6 40/15/6 41/16/6 2/16/6
f 16/12/7 53/12/7 54/13/7 17/13/7
f 2/16/8 41/16/8 42/17/8 4/17/8
f 17/13/9 54/13/9 55/14/9 18/14/9
f 4/17/10 42/17/10 38/29/10 3/29/10
f 30/32/11 67/32/11 66/31/11 29/31/11
f 18/14/12 55/14/12 40/15/12 6/15/12
f 1/1/13 39/1/13 43/2/13 5/2/13
f 31/33/14 68/33/14 67/32/14 30/32/14
f 20/34/15 57/34/15 56/35/15 19/35/15
f 5/2/16 43/2/16 44/3/16 7/3/16
f 32/22/17 69/22/17 68/33/17 31/33/17
f 21/28/18 58/28/18 57/34/18 20/34/18
f 7/3/19 44/3/19 45/4/19 8/4/19
f 33/21/20 70/21/20 69/22/20 32/22/20
f 22/27/21 59/27/21 58/28/21 21/28/21
f 8/4/22 45/4/22 46/5/22 9/5/22
f 34/20/23 71/20/23 70/21/23 33/21/23
f 23/26/24 60/26/24 59/27/24 22/27/24
f 9/5/25 46/5/25 47/6/25 10/6/25
f 35/19/26 72/19/26 71/20/26 34/20/26
f 24/25/27 61/25/27 60/26/27 23/26/27
f 10/6/28 47/6/28 48/7/28 11/7/28
f 36/18/29 73/18/29 72/19/29 35/19/29
f 25/24/30 62/24/30 61/25/30 24/25/30
f 11/7/31 48/7/31 49/8/31 12/8/31
f 37/30/32 74/30/32 73/18/32 36/18/32
f 26/23/33 63/23/33 62/24/33 25/24/33
f 12/8/34 49/8/34 50/9/34 13/9/34
f 29/31/35 66/31/35 74/30/35 37/30/35
f 27/37/36 64/37/36 63/23/36 26/23/36
f 13/9/37 50/9/37 51/10/37 14/10/37
f 28/36/38 65/36/38 64/37/38 27/37/38
f 14/10/39 51/10/39 52/11/39 15/11/39
f 3/29/40 38/29/40 39/1/40 1/1/40
f 19/35/41 56/35/41 65/36/41 28/36/41
