# Blender v3.6.7 OBJ File: ''
# www.blender.org
mtllib box 2.mtl
o box_Cube
v 1.089825 1.294845 -1.134120
v 1.089825 0.028253 -1.134120
v 1.089825 1.294845 1.134120
v 1.089825 0.028253 1.134120
v -1.089825 1.294845 -1.134120
v -1.089825 0.028253 -1.134120
v -1.089825 1.294845 1.134120
v -1.089825 0.028253 1.134120
vt 0.571101 0.270194
vt 0.242150 0.270194
vt 0.242150 0.054412
vt 0.571101 0.054412
vt 0.972407 0.304594
vt 0.972407 0.585636
vt 0.676496 0.585636
vt 0.676496 0.304594
vt 0.674543 0.003813
vt 0.674543 0.284855
vt 0.970454 0.284855
vt 0.970454 0.003813
vt 0.608023 0.152473
vt 0.658067 0.152473
vt 0.658067 0.104944
vt 0.608023 0.104944
vt 0.970454 0.003813
vt 0.970454 0.284855
vt 0.674543 0.284855
vt 0.674543 0.003813
vt 0.674543 0.003813
vt 0.674543 0.284855
vn 0.0000 1.0000 0.0000
vn 0.0000 0.0000 1.0000
vn -1.0000 0.0000 0.0000
vn 0.0000 -1.0000 0.0000
vn 1.0000 0.0000 0.0000
vn 0.0000 0.0000 -1.0000
usemtl Material
s off
f 1/1/1 5/2/1 7/3/1 3/4/1
f 4/5/2 3/6/2 7/7/2 8/8/2
f 8/9/3 7/10/3 5/11/3 6/12/3
f 6/13/4 2/14/4 4/15/4 8/16/4
f 2/17/5 1/18/5 3/19/5 4/20/5
f 6/21/6 5/22/6 1/18/6 2/17/6
