# Blender 3.6.7
# www.blender.org
mtllib box 3.mtl
o box
v 1.064954 2.371260 -1.498200
v 1.064954 0.016685 -1.498200
v 1.064954 2.371260 1.498200
v 1.064954 0.016685 1.498200
v -1.064954 2.371260 -1.498200
v -1.064954 0.016685 -1.498200
v -1.064954 2.371260 1.498200
v -1.064954 0.016685 1.498200
vn -0.0000 1.0000 -0.0000
vn -0.0000 -0.0000 1.0000
vn -1.0000 -0.0000 -0.0000
vn -0.0000 -1.0000 -0.0000
vn 1.0000 -0.0000 -0.0000
vn -0.0000 -0.0000 -1.0000
vt 0.571101 0.270194
vt 0.242150 0.270194
vt 0.242150 0.054412
vt 0.571101 0.054412
vt 0.972407 0.006956
vt 0.972407 0.287998
vt 0.676496 0.287998
vt 0.676496 0.006956
vt 0.674543 0.003813
vt 0.674543 0.284855
vt 0.970454 0.284855
vt 0.970454 0.003813
vt 0.608023 0.152473
vt 0.658067 0.152473
vt 0.658067 0.104944
vt 0.608023 0.104944
s 0
usemtl Material
f 1/1/1 5/2/1 7/3/1 3/4/1
f 4/5/2 3/6/2 7/7/2 8/8/2
f 8/9/3 7/10/3 5/11/3 6/12/3
f 6/13/4 2/14/4 4/15/4 8/16/4
f 2/12/5 1/11/5 3/10/5 4/9/5
f 6/9/6 5/10/6 1/11/6 2/12/6
