# Blender 3.6.7
# www.blender.org
mtllib Brick wall.mtl
o Brick_Wall
v -3.910722 -0.010920 0.290378
v -3.910722 1.992316 0.290378
v -3.910722 -0.010920 -0.290378
v -3.910722 1.992316 -0.290378
v -1.905942 -0.010920 0.290378
v -1.905942 1.992316 0.290378
v -1.905942 -0.010920 -0.290378
v -1.905942 1.992316 -0.290378
v 0.103617 -0.010920 0.290378
v 0.103617 1.992316 0.290378
v 0.103617 -0.010920 -0.290378
v 0.103617 1.992316 -0.290378
v 2.113177 -0.010920 0.290378
v 2.113177 1.992316 0.290378
v 2.113177 -0.010920 -0.290378
v 2.113177 1.992316 -0.290378
v 4.117956 -0.010920 0.290378
v 4.117956 1.992316 0.290378
v 4.117956 -0.010920 -0.290378
v 4.117956 1.989080 -0.290378
v -3.910722 3.995553 0.290378
v -3.910722 3.995553 -0.290378
v -1.905942 3.995553 0.290378
v -1.905942 3.995553 -0.290378
v 0.103617 3.995553 0.290378
v 0.103617 3.995553 -0.290378
v 2.113177 3.995553 0.290378
v 2.113177 3.995553 -0.290378
v 4.117956 3.995553 0.290378
v 4.117956 1.995553 -0.290378
v 4.117956 3.995553 -0.290378
vn -1.0000 -0.0000 -0.0000
vn -0.0000 -0.0000 -1.0000
vn 1.0000 -0.0000 -0.0000
vn -0.0000 -0.0000 1.0000
vn -0.0000 -1.0000 -0.0000
vn -0.0000 1.0000 -0.0000
vn 0.0008 1.0000 -0.0028
vn 0.0008 -1.0000 -0.0028
vt 0.989955 0.012023
vt 0.989954 0.979188
vt 0.022789 0.979188
vt 0.022790 0.012023
vt 0.983298 0.012023
vt 0.983298 0.979188
vt 0.016133 0.979187
vt 0.016133 0.012023
vt 0.987166 0.015891
vt 0.987166 0.983055
vt 0.020001 0.983055
vt 0.020001 0.015891
vt 0.990438 0.008751
vt 0.990438 0.975916
vt 0.023273 0.975916
vt 0.023273 0.008751
vt 0.019405 0.019163
vt 0.986570 0.019163
vt 0.986570 0.986328
vt 0.019405 0.986328
vt 0.026545 0.008751
vt 0.993710 0.008751
vt 0.993710 0.975916
vt 0.026545 0.975916
s 0
usemtl Material.001
f 1/1/1 2/2/1 4/3/1 3/4/1
f 3/5/2 4/6/2 8/7/2 7/8/2
f 7/9/3 8/10/3 6/11/3 5/12/3
f 5/13/4 6/14/4 2/15/4 1/16/4
f 3/17/5 7/18/5 5/19/5 1/20/5
f 8/21/6 4/22/6 2/23/6 6/24/6
f 7/5/2 8/6/2 12/7/2 11/8/2
f 11/9/3 12/10/3 10/11/3 9/12/3
f 9/13/4 10/14/4 6/15/4 5/16/4
f 7/17/5 11/18/5 9/19/5 5/20/5
f 12/21/6 8/22/6 6/23/6 10/24/6
f 11/5/2 12/6/2 16/7/2 15/8/2
f 15/9/3 16/10/3 14/11/3 13/12/3
f 13/13/4 14/14/4 10/15/4 9/16/4
f 11/17/5 15/18/5 13/19/5 9/20/5
f 16/21/6 12/22/6 10/23/6 14/24/6
f 15/5/2 16/6/2 20/7/2 19/8/2
f 19/9/3 20/10/3 18/11/3 17/12/3
f 17/13/4 18/14/4 14/15/4 13/16/4
f 15/17/5 19/18/5 17/19/5 13/20/5
f 20/21/7 16/22/7 14/23/7 18/24/7
f 2/1/1 21/2/1 22/3/1 4/4/1
f 4/5/2 22/6/2 24/7/2 8/8/2
f 8/9/3 24/10/3 23/11/3 6/12/3
f 6/13/4 23/14/4 21/15/4 2/16/4
f 24/21/6 22/22/6 21/23/6 23/24/6
f 8/5/2 24/6/2 26/7/2 12/8/2
f 12/9/3 26/10/3 25/11/3 10/12/3
f 10/13/4 25/14/4 23/15/4 6/16/4
f 26/21/6 24/22/6 23/23/6 25/24/6
f 12/5/2 26/6/2 28/7/2 16/8/2
f 16/9/3 28/10/3 27/11/3 14/12/3
f 14/13/4 27/14/4 25/15/4 10/16/4
f 28/21/6 26/22/6 25/23/6 27/24/6
f 16/5/2 28/6/2 31/7/2 30/8/2
f 30/9/3 31/10/3 29/11/3 18/12/3
f 18/13/4 29/14/4 27/15/4 14/16/4
f 16/17/8 30/18/8 18/19/8 14/20/8
f 31/21/6 28/22/6 27/23/6 29/24/6
