# Blender 3.6.7
# www.blender.org
mtllib building 3.mtl
o building_3
v 1.604519 4.137041 -2.584364
v 1.604519 0.010982 -2.584364
v 1.604519 4.137041 2.584364
v 1.604519 0.010982 2.584364
v -1.604519 4.137041 -2.584364
v -1.604519 0.010982 -2.584364
v -1.604519 4.137041 2.584364
v -1.604519 0.010982 2.584364
v 0.534840 0.010982 -2.584364
v -0.534840 0.010982 -2.584364
v 0.534840 4.137041 2.584364
v -0.534840 4.137041 2.584364
v -0.534840 0.010982 2.584364
v 0.534840 0.010982 2.584364
v -0.534840 4.137041 -2.584364
v 0.534840 4.137041 -2.584364
v -1.604519 0.010982 -1.722909
v -1.604519 0.010982 -0.861455
v -1.604519 0.010982 0.000000
v -1.604519 0.010982 0.861455
v -1.604519 0.010982 1.722909
v 1.604519 4.137041 -1.722909
v 1.604519 4.137041 -0.861455
v 1.604519 4.137041 0.000000
v 1.604519 4.137041 0.861455
v 1.604519 4.137041 1.722909
v -1.604519 4.137041 1.722909
v -1.604519 4.137041 0.861455
v -1.604519 4.137041 -0.000000
v -1.604519 4.137041 -0.861455
v -1.604519 4.137041 -1.722909
v 1.604519 0.010982 1.722909
v 1.604519 0.010982 0.861455
v 1.604519 0.010982 -0.000000
v 1.604519 0.010982 -0.861455
v 1.604519 0.010982 -1.722909
v -0.534840 0.010982 -1.722909
v -0.534840 0.010982 -0.861455
v -0.534840 0.010982 0.000000
v -0.534840 0.010982 0.861455
v -0.534840 0.010982 1.722909
v 0.534840 0.010982 -1.722909
v 0.534840 0.010982 -0.861455
v 0.534840 0.010982 0.000000
v 0.534840 0.010982 0.861455
v 0.534840 0.010982 1.722909
v 0.534840 4.137041 -1.722909
v 0.534840 4.137041 -0.861455
v 0.534840 4.137041 0.000000
v 0.534840 4.137041 0.861455
v 0.534840 4.137041 1.722909
v -0.534840 4.137041 -1.722909
v -0.534840 4.137041 -0.861455
v -0.534840 4.137041 0.000000
v -0.534840 4.137041 0.861455
v -0.534840 4.137041 1.722909
v 1.604519 3.105526 -2.584364
v 1.604519 2.074011 -2.584364
v 1.604519 1.042497 -2.584364
v -1.604519 1.042497 2.584364
v -1.604519 2.074011 2.584364
v -1.604519 3.105526 2.584364
v 1.604519 3.105526 2.584364
v 1.604519 2.074011 2.584364
v 1.604519 1.042497 2.584364
v -1.604519 3.105526 -2.584364
v -1.604519 2.074011 -2.584364
v -1.604519 1.042497 -2.584364
v -0.534840 3.105526 -2.584364
v -0.534840 2.074011 -2.584364
v -0.534840 1.042497 -2.584364
v 0.534840 3.105526 -2.584364
v 0.534840 2.074011 -2.584364
v 0.534840 1.042497 -2.584364
v 0.534840 3.105526 2.584364
v 0.534840 2.074011 2.584364
v 0.534840 1.042497 2.584364
v -0.534840 3.105526 2.584364
v -0.534840 2.074011 2.584364
v -0.534840 1.042497 2.584364
v 1.604519 3.105526 -1.722909
v 1.604519 2.074011 -1.722909
v 1.604519 3.105526 -0.861455
v 1.604519 2.074011 -0.861455
v 1.604519 3.105526 0.000000
v 1.604519 2.074011 0.000000
v 1.604519 3.105526 0.861455
v 1.604519 2.074011 0.861455
v 1.604519 3.105526 1.722909
v 1.604519 2.074011 1.722909
v -1.604519 3.105526 1.722909
v -1.604519 2.074011 1.722909
v -1.604519 1.042497 1.722909
v -1.604519 3.105526 0.861455
v -1.604519 2.074011 0.861455
v -1.604519 1.042497 0.861455
v -1.604519 3.105526 -0.000000
v -1.604519 2.074011 0.000000
v -1.604519 1.042497 0.000000
v -1.604519 3.105526 -0.861455
v -1.604519 2.074011 -0.861455
v -1.604519 1.042497 -0.861455
v -1.604519 3.105526 -1.722909
v -1.604519 2.074011 -1.722909
v -1.604519 1.042497 -1.722909
v 3.006246 1.042497 -2.584364
v 3.006246 0.010982 -2.584364
v 3.006246 1.042497 2.584364
v 3.006246 0.010982 2.584364
v 3.006246 0.010982 -1.722909
v 3.006246 0.010982 1.722909
v 3.006246 0.010982 0.861455
v 3.006246 0.010982 -0.000000
v 3.006246 0.010982 -0.861455
v 3.006246 1.042497 -1.722909
v 3.006246 1.042497 -0.861455
v 3.006246 1.042497 -0.000000
v 3.006246 1.042497 0.861455
v 3.006246 1.042497 1.722909
v 3.006246 2.074011 -2.584364
v 3.006246 2.074011 2.584364
v 3.006246 2.074011 -1.722909
v 3.006246 2.074011 -0.861455
v 3.006246 2.074011 0.000000
v 3.006246 2.074011 0.861455
v 3.006246 2.074011 1.722909
vn -0.0000 1.0000 -0.0000
vn -0.0000 -0.0000 1.0000
vn -1.0000 -0.0000 -0.0000
vn -0.0000 -1.0000 -0.0000
vn 1.0000 -0.0000 -0.0000
vn -0.0000 -0.0000 -1.0000
vt 0.433984 0.912314
vt 0.421857 0.912314
vt 0.617896 0.925576
vt 0.617896 0.982073
vt 0.502334 0.982073
vt 0.502334 0.925576
vt 0.593553 0.935905
vt 0.593553 0.994980
vt 0.544217 0.994980
vt 0.544217 0.935905
vt 0.733458 0.756085
vt 0.849020 0.756085
vt 0.750573 0.932851
vt 0.750573 0.988872
vt 0.703787 0.988872
vt 0.703787 0.932851
vt 0.733458 0.925576
vt 0.733458 0.982073
vt 0.849020 0.982073
vt 0.849020 0.925576
vt 0.502334 0.982073
vt 0.617896 0.982073
vt 0.502334 0.756085
vt 0.617896 0.756085
vt 0.849020 0.982073
vt 0.733458 0.982073
vt 0.458238 0.912314
vt 0.446111 0.912314
vt 0.617896 0.756085
vt 0.733458 0.756085
vt 0.502334 0.756085
vt 0.984500 0.932851
vt 0.984500 0.988872
vt 0.937714 0.988872
vt 0.937714 0.932851
vt 0.890929 0.988872
vt 0.890929 0.932851
vt 0.844144 0.988872
vt 0.844144 0.932851
vt 0.797358 0.988872
vt 0.797358 0.932851
vt 0.849020 0.756085
vt 0.840231 0.935905
vt 0.840231 0.994980
vt 0.790896 0.994980
vt 0.790896 0.935905
vt 0.741560 0.994980
vt 0.741560 0.935905
vt 0.692224 0.994980
vt 0.692224 0.935905
vt 0.642889 0.994980
vt 0.642889 0.935905
vt 0.642889 0.758680
vt 0.642889 0.817755
vt 0.593553 0.817755
vt 0.593553 0.758680
vt 0.642889 0.876830
vt 0.593553 0.876830
vt 0.692224 0.758680
vt 0.692224 0.817755
vt 0.692224 0.876830
vt 0.741560 0.758680
vt 0.741560 0.817755
vt 0.741560 0.876830
vt 0.790896 0.758680
vt 0.790896 0.817755
vt 0.790896 0.876830
vt 0.840231 0.758680
vt 0.840231 0.817755
vt 0.840231 0.876830
vt 1.000454 0.756085
vt 0.778875 0.980698
vt 0.797766 0.980698
vt 0.772430 0.981665
vt 0.772430 0.988653
vt 0.766594 0.988653
vt 0.766594 0.981665
vt 0.849020 0.812582
vt 1.000454 0.812582
vt 0.778266 0.981665
vt 0.778266 0.988653
vt 0.784103 0.981665
vt 0.784103 0.988653
vt 0.789939 0.981665
vt 0.789939 0.988653
vt 1.000454 0.756085
vt 0.795776 0.981665
vt 0.795776 0.988653
vt 0.733458 0.812582
vt 0.617896 0.812582
vt 0.494843 0.506981
vt 0.494843 0.743345
vt 0.251160 0.743345
vt 0.251160 0.506981
vt 0.492267 0.512331
vt 0.492267 0.747700
vt 0.253736 0.747700
vt 0.253736 0.512331
vt 0.849020 0.812582
vt 0.849020 0.869079
vt 0.733458 0.869079
vt 0.617896 0.812582
vt 0.733458 0.812582
vt 0.617896 0.869079
vt 0.733458 0.869079
vt 0.502334 0.812582
vt 0.502334 0.869079
vt 0.849020 0.869079
vt 1.000454 0.869079
vt 0.760757 0.988653
vt 0.760757 0.981665
vt 0.544217 0.817755
vt 0.544217 0.758680
vt 0.544217 0.876830
vt 0.502334 0.812582
vt 0.617896 0.869079
vt 0.502334 0.869079
vt 0.797358 0.764787
vt 0.797358 0.820808
vt 0.750573 0.820808
vt 0.750573 0.764787
vt 0.797358 0.876830
vt 0.750573 0.876830
vt 0.844144 0.764787
vt 0.844144 0.820808
vt 0.844144 0.876830
vt 0.890929 0.764787
vt 0.890929 0.820808
vt 0.890929 0.876830
vt 0.937714 0.764787
vt 0.937714 0.820808
vt 0.937714 0.876830
vt 0.984500 0.764787
vt 0.984500 0.820808
vt 0.984500 0.876830
vt 0.703787 0.820808
vt 0.703787 0.764787
vt 0.703787 0.876830
vt 1.000454 0.812582
vt 1.000454 0.869079
s 0
usemtl Material
f 56/1/1 27/2/1 7/2/1 12/1/1
f 78/3/2 12/4/2 7/5/2 62/6/2
f 103/7/3 31/8/3 5/9/3 66/10/3
f 46/11/4 32/12/4 4/12/4 14/11/4
f 89/13/5 26/14/5 3/15/5 63/16/5
f 72/17/6 16/18/6 1/19/6 57/20/6
f 66/6/6 5/21/6 15/22/6 69/3/6
f 69/3/6 15/22/6 16/18/6 72/17/6
f 21/23/4 41/24/4 13/24/4 8/23/4
f 41/24/4 46/11/4 14/11/4 13/24/4
f 63/20/2 3/25/2 11/26/2 75/17/2
f 75/17/2 11/26/2 12/4/2 78/3/2
f 26/27/1 51/28/1 11/28/1 3/27/1
f 51/28/1 56/1/1 12/1/1 11/28/1
f 16/28/1 15/1/1 52/1/1 47/28/1
f 47/28/1 52/1/1 53/1/1 48/28/1
f 48/28/1 53/1/1 54/1/1 49/28/1
f 49/28/1 54/1/1 55/1/1 50/28/1
f 50/28/1 55/1/1 56/1/1 51/28/1
f 1/27/1 16/28/1 47/28/1 22/27/1
f 22/27/1 47/28/1 48/28/1 23/27/1
f 23/27/1 48/28/1 49/28/1 24/27/1
f 24/27/1 49/28/1 50/28/1 25/27/1
f 25/27/1 50/28/1 51/28/1 26/27/1
f 10/29/4 9/30/4 42/30/4 37/29/4
f 37/29/4 42/30/4 43/30/4 38/29/4
f 38/29/4 43/30/4 44/30/4 39/29/4
f 39/29/4 44/30/4 45/30/4 40/29/4
f 40/29/4 45/30/4 46/11/4 41/24/4
f 6/31/4 10/29/4 37/29/4 17/31/4
f 17/31/4 37/29/4 38/29/4 18/31/4
f 18/31/4 38/29/4 39/29/4 19/31/4
f 19/31/4 39/29/4 40/29/4 20/31/4
f 20/31/4 40/29/4 41/24/4 21/23/4
f 57/32/5 1/33/5 22/34/5 81/35/5
f 81/35/5 22/34/5 23/36/5 83/37/5
f 83/37/5 23/36/5 24/38/5 85/39/5
f 85/39/5 24/38/5 25/40/5 87/41/5
f 87/41/5 25/40/5 26/14/5 89/13/5
f 9/30/4 2/42/4 36/42/4 42/30/4
f 42/30/4 36/42/4 35/42/4 43/30/4
f 43/30/4 35/42/4 34/42/4 44/30/4
f 44/30/4 34/42/4 33/42/4 45/30/4
f 45/30/4 33/42/4 32/12/4 46/11/4
f 62/43/3 7/44/3 27/45/3 91/46/3
f 91/46/3 27/45/3 28/47/3 94/48/3
f 94/48/3 28/47/3 29/49/3 97/50/3
f 97/50/3 29/49/3 30/51/3 100/52/3
f 100/52/3 30/51/3 31/8/3 103/7/3
f 15/1/1 5/2/1 31/2/1 52/1/1
f 52/1/1 31/2/1 30/2/1 53/1/1
f 53/1/1 30/2/1 29/2/1 54/1/1
f 54/1/1 29/2/1 28/2/1 55/1/1
f 55/1/1 28/2/1 27/2/1 56/1/1
f 18/53/3 102/54/3 105/55/3 17/56/3
f 102/54/3 101/57/3 104/58/3 105/55/3
f 101/57/3 100/52/3 103/7/3 104/58/3
f 19/59/3 99/60/3 102/54/3 18/53/3
f 99/60/3 98/61/3 101/57/3 102/54/3
f 98/61/3 97/50/3 100/52/3 101/57/3
f 20/62/3 96/63/3 99/60/3 19/59/3
f 96/63/3 95/64/3 98/61/3 99/60/3
f 95/64/3 94/48/3 97/50/3 98/61/3
f 21/65/3 93/66/3 96/63/3 20/62/3
f 93/66/3 92/67/3 95/64/3 96/63/3
f 92/67/3 91/46/3 94/48/3 95/64/3
f 8/68/3 60/69/3 93/66/3 21/65/3
f 60/69/3 61/70/3 92/67/3 93/66/3
f 61/70/3 62/43/3 91/46/3 92/67/3
f 36/42/4 2/42/4 107/71/4 110/71/4
f 86/72/1 88/72/1 125/73/1 124/73/1
f 88/74/5 87/75/5 89/76/5 90/77/5
f 35/42/4 36/42/4 110/71/4 114/71/4
f 2/42/6 59/78/6 106/79/6 107/71/6
f 86/80/5 85/81/5 87/75/5 88/74/5
f 82/72/1 84/72/1 123/73/1 122/73/1
f 34/42/4 35/42/4 114/71/4 113/71/4
f 84/82/5 83/83/5 85/81/5 86/80/5
f 90/72/1 64/72/1 121/73/1 126/73/1
f 33/42/4 34/42/4 113/71/4 112/71/4
f 82/84/5 81/85/5 83/83/5 84/82/5
f 88/72/1 90/72/1 126/73/1 125/73/1
f 32/12/4 33/42/4 112/71/4 111/86/4
f 58/87/5 57/88/5 81/85/5 82/84/5
f 14/11/2 77/89/2 80/90/2 13/24/2
f 77/91/2 76/92/2 79/93/2 80/94/2
f 76/95/2 75/96/2 78/97/2 79/98/2
f 4/12/2 65/99/2 77/89/2 14/11/2
f 65/99/2 64/100/2 76/101/2 77/89/2
f 64/100/2 63/20/2 75/17/2 76/101/2
f 10/29/6 71/102/6 74/103/6 9/30/6
f 71/102/6 70/104/6 73/105/6 74/103/6
f 70/104/6 69/3/6 72/17/6 73/105/6
f 6/31/6 68/106/6 71/102/6 10/29/6
f 68/106/6 67/107/6 70/104/6 71/102/6
f 67/107/6 66/6/6 69/3/6 70/104/6
f 9/30/6 74/103/6 59/78/6 2/42/6
f 74/103/6 73/105/6 58/108/6 59/78/6
f 73/105/6 72/17/6 57/20/6 58/108/6
f 59/78/6 58/108/6 120/109/6 106/79/6
f 84/72/1 86/72/1 124/73/1 123/73/1
f 90/77/5 89/76/5 63/110/5 64/111/5
f 17/56/3 105/55/3 68/112/3 6/113/3
f 105/55/3 104/58/3 67/114/3 68/112/3
f 104/58/3 103/7/3 66/10/3 67/114/3
f 13/24/2 80/90/2 60/115/2 8/23/2
f 80/90/2 79/116/2 61/117/2 60/115/2
f 79/116/2 78/3/2 62/6/2 61/117/2
f 112/118/5 118/119/5 119/120/5 111/121/5
f 118/119/5 125/122/5 126/123/5 119/120/5
f 113/124/5 117/125/5 118/119/5 112/118/5
f 117/125/5 124/126/5 125/122/5 118/119/5
f 114/127/5 116/128/5 117/125/5 113/124/5
f 116/128/5 123/129/5 124/126/5 117/125/5
f 110/130/5 115/131/5 116/128/5 114/127/5
f 115/131/5 122/132/5 123/129/5 116/128/5
f 107/133/5 106/134/5 115/131/5 110/130/5
f 106/134/5 120/135/5 122/132/5 115/131/5
f 111/121/5 119/120/5 108/136/5 109/137/5
f 119/120/5 126/123/5 121/138/5 108/136/5
f 65/99/2 4/12/2 109/86/2 108/139/2
f 58/72/1 82/72/1 122/73/1 120/73/1
f 64/100/2 65/99/2 108/139/2 121/140/2
f 4/12/4 32/12/4 111/86/4 109/86/4
