# Blender 3.6.7
# www.blender.org
mtllib glorious cheese holes.mtl
o Plane
v -3.294158 0.003004 -0.000000
v 3.294158 0.003004 -0.000000
v -3.294158 4.301709 0.000000
v 3.294158 4.301709 0.000000
v -1.410959 0.003004 -0.000000
v 1.076098 0.003004 -0.000000
v -1.460127 0.417064 -0.000000
v -1.349499 0.929225 -0.000000
v -1.173316 1.343052 -0.000000
v -0.804559 1.461873 -0.000000
v -0.480874 1.560208 -0.000000
v 0.010802 1.592986 -0.000000
v 0.322196 1.461873 -0.000000
v 0.772898 1.285689 -0.000000
v 1.006443 1.076728 -0.000000
v 1.141655 0.732555 -0.000000
v 1.133460 0.376091 -0.000000
v 1.121168 0.138448 -0.000000
v -2.560119 3.711359 0.000000
v -2.891468 3.464969 0.000000
v -3.027406 3.031666 0.000000
v -2.984926 2.674829 0.000000
v -2.747034 2.360471 0.000000
v -2.279745 2.419944 0.000000
v -1.812457 2.564378 0.000000
v -1.600054 2.921216 0.000000
v -1.727496 3.303543 0.000000
v -2.186289 3.609404 0.000000
v 2.384639 2.870239 0.000000
v 2.129755 2.717309 0.000000
v 2.019304 2.521898 0.000000
v 1.976823 2.334982 0.000000
v 2.087273 2.097091 -0.000000
v 2.503585 2.020625 -0.000000
v 2.953881 2.139571 -0.000000
v 2.996362 2.572875 0.000000
v 2.749973 2.895728 0.000000
v -3.294158 4.301709 -0.356838
v -3.294158 0.003004 -0.356838
v 1.076098 0.003004 -0.356838
v 3.294158 0.003004 -0.356838
v 3.294158 4.301709 -0.356838
v -1.410959 0.003004 -0.356838
v -1.460127 0.417064 -0.356838
v -1.349499 0.929225 -0.356838
v -1.173316 1.343052 -0.356838
v -0.804559 1.461873 -0.356838
v -0.480874 1.560208 -0.356838
v 0.010802 1.592986 -0.356838
v 0.322196 1.461873 -0.356838
v 0.772898 1.285689 -0.356838
v 1.006443 1.076728 -0.356838
v 1.141655 0.732555 -0.356838
v 1.133460 0.376091 -0.356838
v 1.121168 0.138448 -0.356838
v -2.560119 3.711359 -0.356838
v -2.891468 3.464969 -0.356838
v -3.027406 3.031666 -0.356838
v -2.984926 2.674829 -0.356838
v -2.747034 2.360471 -0.356838
v -2.279745 2.419944 -0.356838
v -1.812457 2.564378 -0.356838
v -1.600054 2.921216 -0.356838
v -1.727496 3.303543 -0.356838
v -2.186289 3.609404 -0.356838
v 2.384639 2.870239 -0.356838
v 2.129755 2.717309 -0.356838
v 2.019304 2.521898 -0.356838
v 1.976823 2.334982 -0.356838
v 2.087273 2.097091 -0.356838
v 2.503585 2.020625 -0.356838
v 2.953881 2.139571 -0.356838
v 2.996362 2.572875 -0.356838
v 2.749973 2.895728 -0.356838
vn -0.0000 -0.0000 -1.0000
vn -0.0000 -0.0000 1.0000
vn 0.9308 0.3657 -0.0000
vn -0.0000 1.0000 -0.0000
vn 0.9997 -0.0230 -0.0000
vn -1.0000 -0.0000 -0.0000
vn 0.9987 -0.0517 -0.0000
vn -0.0000 -1.0000 -0.0000
vn -0.5145 0.8575 -0.0000
vn 0.9488 -0.3157 -0.0000
vn -0.8706 0.4921 -0.0000
vn -0.5967 0.8025 -0.0000
vn -0.9930 -0.1179 -0.0000
vn -0.9751 0.2216 -0.0000
vn -0.9541 0.2993 -0.0000
vn -0.9775 0.2111 -0.0000
vn -0.9070 -0.4211 -0.0000
vn -0.9930 -0.1182 -0.0000
vn -0.9201 0.3917 -0.0000
vn -0.1807 -0.9835 -0.0000
vn -0.7974 -0.6034 -0.0000
vn -0.3067 0.9518 -0.0000
vn 0.2554 -0.9668 -0.0000
vn 0.1263 -0.9920 -0.0000
vn -0.2907 0.9568 -0.0000
vn 0.9952 -0.0976 -0.0000
vn 0.2953 -0.9554 -0.0000
vn -0.0665 0.9978 -0.0000
vn 0.7949 0.6067 -0.0000
vn 0.8593 -0.5115 -0.0000
vn 0.3881 0.9216 -0.0000
vn -0.0696 0.9976 -0.0000
vn 0.9487 0.3162 -0.0000
vn 0.3641 0.9314 -0.0000
vn 0.5547 0.8321 -0.0000
vn 0.6668 0.7452 -0.0000
vn 1.0000 -0.0000 -0.0000
vn 0.2631 0.9648 -0.0000
vt 0.000000 0.000000
vt 0.000000 1.000000
vt 0.040489 0.704552
vt 0.046936 0.621542
vt 0.083045 0.548413
vt 0.153971 0.562248
vt 0.224898 0.595848
vt 0.257138 0.678859
vt 0.800050 0.542484
vt 0.816814 0.487144
vt 0.880004 0.469356
vt 0.948351 0.497026
vt 0.954800 0.597824
vt 1.000000 1.000000
vt 1.000000 0.000000
vt 0.663334 0.000000
vt 0.670175 0.031508
vt 0.672041 0.086791
vt 0.673285 0.169714
vt 0.652762 0.249778
vt 0.617314 0.298389
vt 0.548904 0.339374
vt 0.501639 0.369875
vt 0.427011 0.362250
vt 0.377881 0.339374
vt 0.321910 0.311733
vt 0.295168 0.215465
vt 0.278376 0.096322
vt 0.285839 0.000000
vt 0.806498 0.585966
vt 0.823263 0.631424
vt 0.861950 0.667000
vt 0.917401 0.672929
vt 0.237794 0.767798
vt 0.168157 0.838950
vt 0.111415 0.862668
vt 0.061122 0.805351
s 0
usemtl Material.002
f 1/1/1 3/2/1 21/3/1 22/4/1 23/5/1 24/6/1 25/7/1 26/8/1 32/9/1 33/10/1 34/11/1 35/12/1 36/13/1 4/14/1 2/15/1 6/16/1 18/17/1 17/18/1 16/19/1 15/20/1 14/21/1 13/22/1 12/23/1 11/24/1 10/25/1 9/26/1 8/27/1 7/28/1 5/29/1
f 63/8/2 69/9/2 68/30/2 67/31/2 66/32/2 74/33/2 73/13/2 42/14/2
f 3/2/1 4/14/1 26/8/1 27/34/1 28/35/1 19/36/1 20/37/1 21/3/1
f 39/1/2 43/29/2 44/28/2 45/27/2 46/26/2 47/25/2 48/24/2 49/23/2 50/22/2 51/21/2 52/20/2 53/19/2 54/18/2 55/17/2 40/16/2 41/15/2 42/14/2 73/13/2 72/12/2 71/11/2 70/10/2 69/9/2 63/8/2 62/7/2 61/6/2 60/5/2 59/4/2 58/3/2 38/2/2
f 26/8/1 4/14/1 36/13/1 37/33/1 29/32/1 30/31/1 31/30/1 32/9/1
f 38/2/2 58/3/2 57/37/2 56/36/2 65/35/2 64/34/2 63/8/2 42/14/2
f 15/20/3 16/19/3 53/19/3 52/20/3
f 6/16/4 2/15/4 41/15/4 40/16/4
f 16/19/5 17/18/5 54/18/5 53/19/5
f 2/15/6 4/14/6 42/14/6 41/15/6
f 17/18/7 18/17/7 55/17/7 54/18/7
f 4/14/8 3/2/8 38/2/8 42/14/8
f 30/31/9 29/32/9 66/32/9 67/31/9
f 18/17/10 6/16/10 40/16/10 55/17/10
f 1/1/4 5/29/4 43/29/4 39/1/4
f 31/30/11 30/31/11 67/31/11 68/30/11
f 20/37/12 19/36/12 56/36/12 57/37/12
f 5/29/13 7/28/13 44/28/13 43/29/13
f 32/9/14 31/30/14 68/30/14 69/9/14
f 21/3/15 20/37/15 57/37/15 58/3/15
f 7/28/16 8/27/16 45/27/16 44/28/16
f 33/10/17 32/9/17 69/9/17 70/10/17
f 22/4/18 21/3/18 58/3/18 59/4/18
f 8/27/19 9/26/19 46/26/19 45/27/19
f 34/11/20 33/10/20 70/10/20 71/11/20
f 23/5/21 22/4/21 59/4/21 60/5/21
f 9/26/22 10/25/22 47/25/22 46/26/22
f 35/12/23 34/11/23 71/11/23 72/12/23
f 24/6/24 23/5/24 60/5/24 61/6/24
f 10/25/25 11/24/25 48/24/25 47/25/25
f 36/13/26 35/12/26 72/12/26 73/13/26
f 25/7/27 24/6/27 61/6/27 62/7/27
f 11/24/28 12/23/28 49/23/28 48/24/28
f 37/33/29 36/13/29 73/13/29 74/33/29
f 26/8/30 25/7/30 62/7/30 63/8/30
f 12/23/31 13/22/31 50/22/31 49/23/31
f 29/32/32 37/33/32 74/33/32 66/32/32
f 27/34/33 26/8/33 63/8/33 64/34/33
f 13/22/34 14/21/34 51/21/34 50/22/34
f 28/35/35 27/34/35 64/34/35 65/35/35
f 14/21/36 15/20/36 52/20/36 51/21/36
f 3/2/37 1/1/37 39/1/37 38/2/37
f 19/36/38 28/35/38 65/35/38 56/36/38
